<?xml version="1.0" encoding="UTF-8"?>
<svg width="26px" height="26px" viewBox="0 0 26 26" version="1.1" xmlns="http://www.w3.org/2000/svg" xmlns:xlink="http://www.w3.org/1999/xlink">
    <!-- Generator: Sketch 50.2 (55047) - http://www.bohemiancoding.com/sketch -->
    <title>yellow alert</title>
    <desc>Created with Sketch.</desc>
    <defs></defs>
    <g id="icons" stroke="none" stroke-width="1" fill="none" fill-rule="evenodd">
        <g id="Artboard-Copy-3" transform="translate(-956.000000, -455.000000)">
            <g id="yellow-alert" transform="translate(956.000000, 455.000000)">
                <g id="Group-10" fill="#F6CE00">
                    <circle id="Oval-Copy-2" cx="13" cy="13" r="13"></circle>
                </g>
                <g id="Group" transform="translate(11.000000, 4.000000)" fill="#FFFFFF">
                    <path d="M4,3.04868153 C3.82145818,5.00336483 3.66097115,6.7977783 3.49045368,8.59320614 C3.42826496,9.26268771 3.35303666,9.93216927 3.26175966,10.5986077 C3.2306653,10.8207539 3.14640961,11.0418857 3.0571387,11.2508451 C2.83947817,11.7539706 2.42120884,12.0136483 1.8905986,11.9994472 C1.3449427,11.9862604 0.930685555,11.7286115 0.780228964,11.1940406 C0.62375411,10.6371537 0.50138275,10.0620081 0.458251861,9.48990569 C0.285728304,7.19540978 0.141289977,4.8998995 0.00888817736,2.60540358 C-0.0151848771,2.20675774 0.00688208949,1.78985331 0.109192571,1.4054086 C0.508404058,-0.0786088773 2.17947526,-0.220620119 3.04109,0.217585998 C3.5777185,0.49146482 3.76428467,0.986475433 3.84854037,1.50481646 C3.93781128,2.0647465 3.96188433,2.63583457 4,3.04868153" id="Fill-3"></path>
                    <path d="M1.97200795,17.9996579 C0.80226749,17.9800908 -0.0265082116,17.1267486 0.000648273802,15.9679424 C0.0267989634,14.841748 0.912905023,13.9797093 2.02330354,14.0003635 C3.1457716,14.0210176 4.01880231,14.9297999 3.99969219,16.0570813 C3.97957628,17.1974075 3.1226383,18.019225 1.97200795,17.9996579" id="Fill-5"></path>
                </g>
            </g>
        </g>
    </g>
</svg>