<?xml version="1.0" encoding="UTF-8"?>
<svg id="Layer_1" xmlns="http://www.w3.org/2000/svg" xmlns:xlink="http://www.w3.org/1999/xlink" version="1.1" viewBox="0 0 650 650">
  <!-- Generator: Adobe Illustrator 29.5.1, SVG Export Plug-In . SVG Version: 2.1.0 Build 141)  -->
  <defs>
    <style>
      .st0 {
        fill: none;
      }

      .st1 {
        fill: #b31942;
      }

      .st2 {
        fill: #0a3161;
      }

      .st3 {
        fill: #fff;
      }

      .st4 {
        stroke: #fff;
        stroke-miterlimit: 10;
        stroke-width: 50px;
      }

      .st5 {
        clip-path: url(#clippath);
      }
    </style>
    <clipPath id="clippath">
      <circle class="st0" cx="325" cy="325" r="325"/>
    </clipPath>
  </defs>
  <g class="st5">
    <path class="st1" d="M0,0h1235v650H0"/>
    <path class="st4" d="M0,75h1235M1235,175H0M0,275h1235M1235,375H0M0,475h1235M1235,575H0"/>
    <path class="st2" d="M0,0h494v350H0"/>
    <g>
      <g id="s18">
        <g id="s9">
          <g id="s5">
            <g id="s4">
              <path id="s" class="st3" d="M41.2,15l11.8,36.2-30.8-22.4h38l-30.8,22.4,11.8-36.2Z"/>
              <path id="s1" data-name="s" class="st3" d="M41.2,85l11.8,36.2-30.8-22.4h38l-30.8,22.4,11.8-36.2Z"/>
              <path id="s2" data-name="s" class="st3" d="M41.2,155l11.8,36.2-30.8-22.4h38l-30.8,22.4,11.8-36.2Z"/>
              <path id="s3" data-name="s" class="st3" d="M41.2,225l11.8,36.2-30.8-22.4h38l-30.8,22.4,11.8-36.2Z"/>
            </g>
            <path id="s4" data-name="s" class="st3" d="M41.2,295l11.8,36.2-30.8-22.4h38l-30.8,22.4,11.8-36.2Z"/>
          </g>
          <g id="s41" data-name="s4">
            <path id="s5" data-name="s" class="st3" d="M82.3,50l11.8,36.2-30.8-22.4h38l-30.8,22.4,11.8-36.2Z"/>
            <path id="s6" data-name="s" class="st3" d="M82.3,120l11.8,36.2-30.8-22.4h38l-30.8,22.4,11.8-36.2Z"/>
            <path id="s7" data-name="s" class="st3" d="M82.3,190l11.8,36.2-30.8-22.4h38l-30.8,22.4,11.8-36.2Z"/>
            <path id="s8" data-name="s" class="st3" d="M82.3,260l11.8,36.2-30.8-22.4h38l-30.8,22.4,11.8-36.2Z"/>
          </g>
        </g>
        <g id="s91" data-name="s9">
          <g id="s51" data-name="s5">
            <g id="s42" data-name="s4">
              <path id="s9" data-name="s" class="st3" d="M123.5,15l11.8,36.2-30.8-22.4h38l-30.8,22.4,11.8-36.2Z"/>
              <path id="s10" data-name="s" class="st3" d="M123.5,85l11.8,36.2-30.8-22.4h38l-30.8,22.4,11.8-36.2Z"/>
              <path id="s11" data-name="s" class="st3" d="M123.5,155l11.8,36.2-30.8-22.4h38l-30.8,22.4,11.8-36.2Z"/>
              <path id="s12" data-name="s" class="st3" d="M123.5,225l11.8,36.2-30.8-22.4h38l-30.8,22.4,11.8-36.2Z"/>
            </g>
            <path id="s13" data-name="s" class="st3" d="M123.5,295l11.8,36.2-30.8-22.4h38l-30.8,22.4,11.8-36.2Z"/>
          </g>
          <g id="s43" data-name="s4">
            <path id="s14" data-name="s" class="st3" d="M164.7,50l11.8,36.2-30.8-22.4h38l-30.8,22.4,11.8-36.2Z"/>
            <path id="s15" data-name="s" class="st3" d="M164.7,120l11.8,36.2-30.8-22.4h38l-30.8,22.4,11.8-36.2Z"/>
            <path id="s16" data-name="s" class="st3" d="M164.7,190l11.8,36.2-30.8-22.4h38l-30.8,22.4,11.8-36.2Z"/>
            <path id="s17" data-name="s" class="st3" d="M164.7,260l11.8,36.2-30.8-22.4h38l-30.8,22.4,11.8-36.2Z"/>
          </g>
        </g>
      </g>
      <g id="s181" data-name="s18">
        <g id="s92" data-name="s9">
          <g id="s52" data-name="s5">
            <g id="s44" data-name="s4">
              <path id="s18" data-name="s" class="st3" d="M205.8,15l11.8,36.2-30.8-22.4h38l-30.8,22.4,11.8-36.2Z"/>
              <path id="s19" data-name="s" class="st3" d="M205.8,85l11.8,36.2-30.8-22.4h38l-30.8,22.4,11.8-36.2Z"/>
              <path id="s20" data-name="s" class="st3" d="M205.8,155l11.8,36.2-30.8-22.4h38l-30.8,22.4,11.8-36.2Z"/>
              <path id="s21" data-name="s" class="st3" d="M205.8,225l11.8,36.2-30.8-22.4h38l-30.8,22.4,11.8-36.2Z"/>
            </g>
            <path id="s22" data-name="s" class="st3" d="M205.8,295l11.8,36.2-30.8-22.4h38l-30.8,22.4,11.8-36.2Z"/>
          </g>
          <g id="s45" data-name="s4">
            <path id="s23" data-name="s" class="st3" d="M247,50l11.8,36.2-30.8-22.4h38l-30.8,22.4,11.8-36.2Z"/>
            <path id="s24" data-name="s" class="st3" d="M247,120l11.8,36.2-30.8-22.4h38l-30.8,22.4,11.8-36.2Z"/>
            <path id="s25" data-name="s" class="st3" d="M247,190l11.8,36.2-30.8-22.4h38l-30.8,22.4,11.8-36.2Z"/>
            <path id="s26" data-name="s" class="st3" d="M247,260l11.8,36.2-30.8-22.4h38l-30.8,22.4,11.8-36.2Z"/>
          </g>
        </g>
        <g id="s93" data-name="s9">
          <g id="s53" data-name="s5">
            <g id="s46" data-name="s4">
              <path id="s27" data-name="s" class="st3" d="M288.2,15l11.8,36.2-30.8-22.4h38l-30.8,22.4,11.8-36.2Z"/>
              <path id="s28" data-name="s" class="st3" d="M288.2,85l11.8,36.2-30.8-22.4h38l-30.8,22.4,11.8-36.2Z"/>
              <path id="s29" data-name="s" class="st3" d="M288.2,155l11.8,36.2-30.8-22.4h38l-30.8,22.4,11.8-36.2Z"/>
              <path id="s30" data-name="s" class="st3" d="M288.2,225l11.8,36.2-30.8-22.4h38l-30.8,22.4,11.8-36.2Z"/>
            </g>
            <path id="s31" data-name="s" class="st3" d="M288.2,295l11.8,36.2-30.8-22.4h38l-30.8,22.4,11.8-36.2Z"/>
          </g>
          <g id="s47" data-name="s4">
            <path id="s32" data-name="s" class="st3" d="M329.3,50l11.8,36.2-30.8-22.4h38l-30.8,22.4,11.8-36.2Z"/>
            <path id="s33" data-name="s" class="st3" d="M329.3,120l11.8,36.2-30.8-22.4h38l-30.8,22.4,11.8-36.2Z"/>
            <path id="s34" data-name="s" class="st3" d="M329.3,190l11.8,36.2-30.8-22.4h38l-30.8,22.4,11.8-36.2Z"/>
            <path id="s35" data-name="s" class="st3" d="M329.3,260l11.8,36.2-30.8-22.4h38l-30.8,22.4,11.8-36.2Z"/>
          </g>
        </g>
      </g>
      <g id="s94" data-name="s9">
        <g id="s54" data-name="s5">
          <g id="s48" data-name="s4">
            <path id="s36" data-name="s" class="st3" d="M370.5,15l11.8,36.2-30.8-22.4h38l-30.8,22.4,11.8-36.2Z"/>
            <path id="s37" data-name="s" class="st3" d="M370.5,85l11.8,36.2-30.8-22.4h38l-30.8,22.4,11.8-36.2Z"/>
            <path id="s38" data-name="s" class="st3" d="M370.5,155l11.8,36.2-30.8-22.4h38l-30.8,22.4,11.8-36.2Z"/>
            <path id="s39" data-name="s" class="st3" d="M370.5,225l11.8,36.2-30.8-22.4h38l-30.8,22.4,11.8-36.2Z"/>
          </g>
          <path id="s40" data-name="s" class="st3" d="M370.5,295l11.8,36.2-30.8-22.4h38l-30.8,22.4,11.8-36.2Z"/>
        </g>
        <g id="s49" data-name="s4">
          <path id="s41" data-name="s" class="st3" d="M411.7,50l11.8,36.2-30.8-22.4h38l-30.8,22.4,11.8-36.2Z"/>
          <path id="s42" data-name="s" class="st3" d="M411.7,120l11.8,36.2-30.8-22.4h38l-30.8,22.4,11.8-36.2Z"/>
          <path id="s43" data-name="s" class="st3" d="M411.7,190l11.8,36.2-30.8-22.4h38l-30.8,22.4,11.8-36.2Z"/>
          <path id="s44" data-name="s" class="st3" d="M411.7,260l11.8,36.2-30.8-22.4h38l-30.8,22.4,11.8-36.2Z"/>
        </g>
      </g>
      <g id="s55" data-name="s5">
        <g id="s410" data-name="s4">
          <path id="s45" data-name="s" class="st3" d="M452.8,15l11.8,36.2-30.8-22.4h38l-30.8,22.4,11.8-36.2Z"/>
          <path id="s46" data-name="s" class="st3" d="M452.8,85l11.8,36.2-30.8-22.4h38l-30.8,22.4,11.8-36.2Z"/>
          <path id="s47" data-name="s" class="st3" d="M452.8,155l11.8,36.2-30.8-22.4h38l-30.8,22.4,11.8-36.2Z"/>
          <path id="s48" data-name="s" class="st3" d="M452.8,225l11.8,36.2-30.8-22.4h38l-30.8,22.4,11.8-36.2Z"/>
        </g>
        <path id="s49" data-name="s" class="st3" d="M452.8,295l11.8,36.2-30.8-22.4h38l-30.8,22.4,11.8-36.2Z"/>
      </g>
    </g>
  </g>
</svg>